<svg version="1.1" id="Layer_1" xmlns="http://www.w3.org/2000/svg" xmlns:xlink="http://www.w3.org/1999/xlink" x="0px" y="0px" viewBox="0 0 543.9 63.5" style="enable-background:new 0 0 543.9 63.5;" xml:space="preserve">
 <style type="text/css">
  .st0{fill:#FFFFFF;}
	.st1{fill:#F1C931;}
 </style>
 <g>
  <path class="st0" d="M117,62.9L100.5,41H94v21.9H74.5V5.5h29c21.3,0,34.9,5.9,34.9,17.7c0,8.3-7.7,13-18.3,16l18.9,23.6H117z
		 M102.3,15.6h-8.9v16h9.5c10.1,0,15.4-3,15.4-7.7C118.8,18,114.1,15.6,102.3,15.6z M186.8,41v21.9h-19.5V41.6L138.9,5.5h21.3
		l8.3,11.8c3.5,4.7,7.1,10.6,8.3,13.6c1.2-3,4.7-8.9,8.3-13.6l8.3-11.8h21.3L186.8,41z M260.7,62.9l-5.3-11.8h-24.2l-5.3,11.8h-20.1
		l27.8-57.3h18.9l27.8,57.3H260.7z M248.3,34.5c-1.8-4.1-4.1-11.2-5.3-14.2c-0.6,3-3,8.9-4.7,13.6l-3,7.1h16L248.3,34.5z M334,62.9
		l-20.1-25.4c-3-3.5-6.5-8.3-8.3-11.8c0,3.5,0.6,9.5,0.6,13v24.2h-17.7V5.5H308L326.9,31c2.4,3.5,6.5,8.9,8.9,11.8
		c0-3.5-0.6-10.1-0.6-13.6V5.5h17.7v57.3L334,62.9z M415.6,62.9l-5.3-11.8H386l-5.3,11.8h-20.1l27.8-57.3h19.5l27.8,57.3H415.6z
		 M403.2,34.5c-1.8-4.1-4.1-11.2-5.3-14.2c-0.6,3-3,8.9-4.7,13.6l-3,7.1h16L403.2,34.5z M443.4,62.9V5.5h19.5v57.3H443.4z
		 M522.6,62.9L505.5,41H499v21.9h-19.5V5.5h29c21.3,0,34.9,5.9,34.9,17.7c0,8.3-7.7,13-18.3,16l18.9,23.6H522.6z M507.8,15.6H499v16
		h9.5c10.1,0,15.4-3,15.4-7.7C524.4,18,519.7,15.6,507.8,15.6z">
  </path>
  <g>
   <path class="st1" d="M42.5,3.2c4.1,1.2,8.3,2.4,12.4,3h3c1.8,0,3-0.6,4.7-1.2h0.6c0,0.6,0,0.6-0.6,1.2c-2.4,1.8-4.7,3-7.1,3.5
			c-0.6,0-1.8,0.6-2.4,0.6c-3,1.2-6.5,1.2-9.5,1.2c-5.9-0.6-11.2-2.4-17.1-2.4C21.3,8.5,15.9,10.9,13,15c-0.6,2.4-1.8,4.7-1.8,7.1
			s3.5,3,4.7,4.7l1.8,3.5c0.6,2.4,1.8,4.7,3.5,7.1c1.2,1.2,2.4,3,4.1,3.5c2.4,1.8,4.1,3.5,5.3,5.9c1.2,2.4,2.4,4.1,3,6.5
			c0.6,1.2,1.2,2.4,1.2,4.1v0.6c0.6,1.2,0.6,2.4,1.2,3v0.6c0,0.6,0.6,1.8,0,1.8c-1.2-1.2-1.8-2.4-2.4-3.5c-0.6-2.4-2.4-4.7-4.1-7.1
			c-1.2-1.2-2.4-3-3.5-4.1c-4.7-5.3-11.8-8.9-17.1-13.6c0,0,0-0.6-0.6-1.2c-0.6-1.2-1.2-1.8-1.8-3c-1.2-2.4-3-4.7-4.1-7.7
			c0-1.2-0.6-2.4-0.6-3.5v-0.6c0-1.2-3-1.8-1.2-4.1c1.2-1.2,4.7-2.4,5.9-4.7V9.1c0,0,0-0.6-0.6-0.6S3.5,9.7,3.5,7.9V6.1
			C4.1,5,4.1,3.8,4.1,2.6C4.1,2,4.7,2,5.3,2s1.8-0.6,2.4-0.6c1.8,0,4.1,0,5.3,1.2c0.6,1.2,0,2.4,0,3.5s-1.2,1.8-0.6,2.4h1.2
			c2.4-1.8,4.7-4.1,7.1-6.5c1.8-1.8,4.7-2.4,7.1-1.8C33.1,0.2,37.2,2,42.5,3.2z">
   </path>
   <path class="st1" d="M28.9,12.6c0.6,1.2,0,1.8-0.6,3c-3,4.1-4.1,9.5-5.9,14.2h-0.6c-0.6,0-0.6-0.6-0.6-1.2
			c0-5.3,1.8-10.1,4.1-14.8c0.6-0.6,1.2-1.8,2.4-1.2C28.4,12,28.4,12.6,28.9,12.6z M37.2,13.8c0.6,1.8-0.6,3-1.2,4.7
			c-3,5.9-6.5,11.8-8.3,18.3c0,0,0,0.6-0.6,0.6h-0.6c-0.6-2.4,0-5.3,0.6-7.7c1.8-5.3,3.5-10.6,6.5-16c0.6,0,0.6-0.6,0.6-0.6
			C35.4,13.2,36.6,13.2,37.2,13.8z M45.5,14.4c0.6,0.6,0.6,1.8,0,2.4C42,24.5,36.6,31,34.3,39.2l-1.8,5.3c0,0.6-0.6,0.6-0.6,0
			c-0.6-0.6,0-1.8,0-2.4c0.6-6.5,2.4-13,5.3-18.3c1.2-3,3-5.3,4.1-8.3c0.6-0.6,1.2-1.8,2.4-1.8C44.3,13.8,44.9,13.8,45.5,14.4z
			 M55,15c0.6,1.2,0,1.8,0,3c-2.4,5.9-6.5,11.2-9.5,17.1c-3,4.7-4.7,10.1-6.5,14.8c-0.6,1.8-1.2,3-1.8,4.7h-0.6
			C36,54,36,53.4,36,52.8c0.6-6.5,3-11.8,5.3-17.7c3-6.5,6.5-12.4,9.5-18.9c0.6-0.6,1.2-1.8,2.4-2.4C53.8,13.8,54.4,13.8,55,15z">
   </path>
  </g>
 </g>
</svg>